<svg width="1080" height="1080" viewBox="0 0 1080 1080" fill="none" xmlns="http://www.w3.org/2000/svg">
<rect width="1080" height="1080" rx="250" fill="black"/>
<path d="M499.943 145.297C476.61 146.63 458.076 151.43 432.343 162.363C419.543 167.83 407.01 174.363 399.143 179.963C363.81 204.097 341.41 228.763 323.543 262.497C304.876 298.23 294.343 343.697 295.943 381.697C296.743 399.163 299.543 422.363 300.876 422.363C301.276 422.363 304.61 419.297 308.21 415.563C317.543 406.097 333.943 392.497 347.41 383.03L358.876 374.897L360.476 359.697C365.543 313.563 377.01 285.963 403.543 256.897C424.61 233.697 451.01 218.763 486.076 210.097C508.476 204.497 544.743 206.763 569.943 215.163C608.61 228.097 643.676 258.897 661.543 295.697C665.943 304.763 673.543 326.23 675.01 333.43C675.276 335.03 675.943 338.363 676.343 340.763C677.143 344.897 678.343 345.697 709.543 361.03C727.41 369.83 742.343 377.03 742.743 377.03C745.143 377.03 742.743 350.497 737.543 322.097C736.876 317.963 731.543 300.497 727.276 288.363C719.543 266.497 701.143 236.097 683.01 215.43C672.61 203.697 652.61 186.63 638.61 177.563C619.81 165.43 588.743 153.03 565.543 148.363C555.01 146.363 523.01 143.43 517.276 144.097C515.676 144.23 507.81 144.763 499.943 145.297Z" fill="white"/>
<path d="M718.21 188.496C706.61 189.697 690.61 191.963 688.476 192.63C686.476 193.163 687.543 194.763 693.943 201.697C704.076 212.363 717.543 229.83 724.743 241.297L730.476 250.363H738.476C760.343 250.363 798.876 259.697 817.41 269.43C842.876 282.763 857.276 306.497 857.01 334.23C857.01 349.43 854.876 358.097 848.61 370.497C842.21 383.297 829.41 395.697 815.943 402.363C807.543 406.63 805.81 406.897 790.876 407.43C775.276 407.963 774.343 407.83 760.876 403.297C743.81 397.697 682.876 368.63 646.876 349.03C643.276 347.03 633.01 341.697 624.21 337.03C615.41 332.363 601.543 324.763 593.41 320.23C585.276 315.563 574.476 309.83 569.41 307.297C564.343 304.763 552.076 298.63 542.21 293.43C532.343 288.363 521.543 283.297 518.21 282.097C514.876 280.896 508.876 278.763 504.876 277.163C482.876 268.63 457.676 263.697 435.543 263.697C424.343 263.83 422.476 264.097 419.543 266.763C413.41 272.097 402.476 286.23 397.676 294.63C392.743 303.563 383.543 324.363 383.543 326.63C383.543 327.563 385.41 327.697 388.476 327.163C391.276 326.63 400.743 325.963 409.543 325.563C445.81 323.83 482.21 332.63 518.876 351.697C548.343 367.163 557.81 372.23 559.676 373.83C560.743 374.897 562.076 375.697 562.61 375.697C563.01 375.697 573.81 381.297 586.476 388.097C613.676 402.763 704.076 448.23 708.876 449.697C710.743 450.23 716.076 452.497 720.876 454.763C733.543 460.497 753.276 467.03 766.21 469.697C790.476 474.763 821.543 469.563 848.476 456.097C860.21 450.23 879.143 435.697 887.943 425.697C892.476 420.63 903.143 404.363 906.876 397.03C919.143 372.763 923.81 339.563 918.876 310.897C916.343 296.63 915.276 292.763 909.276 279.03C891.41 237.697 855.543 210.63 797.276 194.496C782.343 190.363 734.076 186.63 718.21 188.496Z" fill="white"/>
<path d="M569.943 241.43C562.21 245.83 531.676 267.83 531.543 269.03C531.543 269.43 535.41 271.43 540.21 273.563C548.076 277.03 578.876 292.763 590.476 299.43L595.41 302.23L606.476 293.963C612.61 289.43 620.476 284.363 623.943 282.63C627.41 280.897 630.21 279.163 630.21 278.763C630.21 276.897 612.343 259.83 602.876 252.497C594.61 246.23 579.543 236.897 577.81 237.03C577.676 237.03 574.21 239.03 569.943 241.43Z" fill="white"/>
<path d="M286.21 296.763C251.676 318.497 234.876 332.63 215.41 356.363C209.41 363.697 203.81 370.897 202.876 372.363C201.943 373.83 198.476 379.297 195.143 384.497C180.743 406.897 170.876 431.963 163.543 465.03C159.41 483.163 159.143 485.963 159.01 511.697C158.876 540.897 160.076 551.43 165.81 572.363C177.01 612.363 192.61 641.43 219.41 672.097C240.743 696.363 266.61 716.497 296.343 731.963C314.476 741.297 321.41 744.097 340.076 749.163C366.076 756.23 384.076 759.03 381.143 755.297C376.343 749.43 358.476 707.83 354.076 692.23C353.01 688.497 351.276 687.297 338.476 681.697C311.41 669.697 292.476 656.763 273.41 637.563C248.476 612.363 231.943 581.297 224.076 544.363C220.876 529.43 220.876 492.497 224.076 477.697C231.41 444.23 248.343 411.963 272.076 385.697C278.076 379.163 278.076 378.897 278.343 369.03C278.476 357.963 279.01 351.563 280.21 341.697C280.743 337.963 281.41 332.63 281.676 329.697C282.476 323.563 285.41 311.163 288.476 301.963C289.543 298.363 290.21 295.297 290.076 295.03C289.81 294.897 288.076 295.563 286.21 296.763Z" fill="white"/>
<path d="M446.21 351.696C422.21 359.696 389.676 375.296 370.21 388.096C335.41 411.163 296.743 449.83 277.41 481.03C268.076 495.963 249.676 532.496 246.343 542.63L243.41 551.43L246.743 561.563C250.743 573.43 260.61 593.563 265.676 600.63C277.276 616.363 284.076 625.03 284.876 625.03C285.276 625.03 286.743 620.096 288.076 613.963C298.61 564.496 320.343 521.43 353.01 485.163C385.543 449.163 421.676 424.896 464.21 410.63C493.276 400.763 532.343 396.23 561.276 399.563C566.21 400.096 570.21 400.096 570.21 399.696C570.21 399.163 566.743 396.896 562.61 394.63C558.343 392.496 547.143 386.363 537.543 381.03C502.61 361.83 470.076 347.563 461.41 347.83C459.276 347.83 452.476 349.563 446.21 351.696Z" fill="white"/>
<path d="M487.543 421.83C472.743 425.03 444.743 436.096 430.876 444.096C405.41 458.763 384.876 475.563 380.21 485.563C371.41 504.63 363.41 535.43 359.943 563.697C358.076 579.43 358.876 624.363 361.41 641.03C367.276 680.097 379.01 715.43 395.81 745.43C417.81 784.63 432.61 803.563 464.21 832.763C476.21 843.83 492.343 855.697 495.41 855.697C501.676 855.697 527.543 848.497 539.01 843.697C551.543 838.363 566.21 830.497 566.076 829.03C566.076 828.63 559.943 824.763 552.476 820.363C487.543 782.23 441.41 720.363 426.076 651.03C417.81 613.563 417.676 581.03 425.676 546.897C429.543 530.23 434.743 513.43 439.143 503.697C441.01 499.697 443.41 494.23 444.61 491.697C453.01 472.763 475.81 441.563 492.076 426.63C495.41 423.563 498.21 420.63 498.21 420.363C498.21 419.563 498.076 419.563 487.543 421.83Z" fill="white"/>
<path d="M764.876 612.363C742.743 617.163 730.743 622.763 702.21 641.697C673.676 660.63 660.343 667.963 640.476 675.697C610.076 687.563 590.476 691.697 564.21 691.697C539.143 691.563 522.61 688.763 497.143 680.23C482.21 675.163 458.343 663.297 451.943 657.83C445.81 652.497 444.076 651.83 445.543 655.297C446.076 656.63 447.81 662.497 449.543 668.363C452.876 680.23 461.41 699.297 470.21 714.363C477.543 727.03 489.543 743.163 492.476 744.23C497.543 746.23 526.343 751.83 536.21 752.763C567.143 755.563 602.476 752.763 633.41 744.897C653.943 739.697 684.076 726.763 704.476 714.363C709.276 711.43 713.41 709.03 713.676 709.03C714.076 709.03 721.41 704.23 729.943 698.497C758.876 678.897 772.476 673.163 788.876 673.03C812.61 673.03 838.876 689.297 849.276 710.63C855.143 722.897 856.876 731.163 856.876 746.897C856.876 765.03 850.876 781.697 839.543 794.763C830.876 804.897 805.81 821.03 781.676 832.363C757.543 843.697 727.143 851.297 699.943 852.63L684.876 853.43L676.61 862.897C661.41 879.83 645.41 894.497 631.143 904.23C626.076 907.697 624.076 909.83 625.143 910.497C634.743 915.43 706.743 917.03 730.876 912.63C785.143 902.763 834.743 880.763 871.01 850.23C889.81 834.497 902.876 816.497 911.943 793.697C924.076 763.297 923.543 721.83 910.61 692.497C894.876 656.63 866.076 629.03 832.743 617.697C812.076 610.63 783.676 608.363 764.876 612.363Z" fill="white"/>
<path d="M222.21 703.83C222.21 709.296 232.076 747.83 236.21 759.163C257.143 815.296 292.21 861.163 337.41 891.43C359.41 906.096 378.21 915.43 403.676 924.363C445.543 938.896 495.41 940.363 538.21 928.363C580.343 916.496 608.876 901.163 641.81 872.63C678.21 840.896 708.743 795.03 722.876 750.363C726.61 738.763 731.543 719.296 731.01 718.763C730.876 718.496 725.276 721.83 718.743 725.963C707.01 733.43 693.943 739.963 665.676 752.63C652.343 758.496 651.01 759.563 647.943 765.03C632.21 793.163 604.076 824.23 577.943 841.963C557.276 855.963 542.61 862.63 521.943 867.563C500.876 872.63 494.743 873.296 475.543 873.296C458.076 873.296 452.076 872.63 434.743 868.63C417.276 864.496 391.676 852.763 372.876 840.363C359.943 831.696 338.076 810.63 328.21 797.163C318.61 784.23 313.676 775.696 305.01 757.03C304.476 755.963 296.476 751.163 287.41 746.363C268.876 736.763 243.676 720.363 233.543 711.43C223.01 702.23 222.21 701.696 222.21 703.83Z" fill="white"/>
</svg>
